<?xml version="1.0" encoding="UTF-8" standalone="no"?>
<!DOCTYPE svg PUBLIC "-//W3C//DTD SVG 1.1//EN" "http://www.w3.org/Graphics/SVG/1.1/DTD/svg11.dtd">
<svg version="1.1" xmlns="http://www.w3.org/2000/svg" xmlns:xlink="http://www.w3.org/1999/xlink" preserveAspectRatio="xMidYMid meet" viewBox="0 0 640 640" width="640" height="640"><defs><path d="M320 640C496.73 640 640 496.73 640 320C639.8 143.35 496.65 0.2 320 0C143.27 0 0 143.27 0 320C0 496.73 143.27 640 320 640Z" id="e6MIsbug5C"></path><path d="M136.35 261.56C111.71 286.21 111.71 326.16 136.35 350.8C161.31 374.66 200.62 374.66 225.59 350.8C227.26 349.13 235.6 340.79 250.63 325.76C250.63 422.48 250.63 476.21 250.63 486.96C250.63 525.38 281.77 556.52 320.19 556.52C358.61 556.52 389.76 525.38 389.76 486.96C389.76 476.21 389.76 422.48 389.76 325.76C404.78 340.79 413.13 349.13 414.8 350.8C439.77 374.66 479.08 374.66 504.04 350.8C528.68 326.16 528.68 286.21 504.04 261.56C493.74 251.28 442.23 199.84 349.52 107.24C321.04 96.38 301.37 96.38 290.5 107.24C275.09 122.67 151.76 246.13 136.35 261.56Z" id="aPaU7KHnp"></path></defs><g><g><g><use xlink:href="#e6MIsbug5C" opacity="1" fill="#ffffff" fill-opacity="1"></use><g><use xlink:href="#e6MIsbug5C" opacity="1" fill-opacity="0" stroke="#000000" stroke-width="1" stroke-opacity="0"></use></g></g><g><use xlink:href="#aPaU7KHnp" opacity="1" fill="#ff659d" fill-opacity="1"></use><g><use xlink:href="#aPaU7KHnp" opacity="1" fill-opacity="0" stroke="#000000" stroke-width="1" stroke-opacity="0"></use></g></g></g></g></svg>