<?xml version="1.0" encoding="UTF-8" standalone="no"?>
<!DOCTYPE svg PUBLIC "-//W3C//DTD SVG 1.1//EN" "http://www.w3.org/Graphics/SVG/1.1/DTD/svg11.dtd">
<svg version="1.1" xmlns="http://www.w3.org/2000/svg" xmlns:xlink="http://www.w3.org/1999/xlink" preserveAspectRatio="xMidYMid meet" viewBox="0 0 640 640" width="640" height="640"><defs><path d="M543.99 245.33C536.51 245.36 529.06 246.26 521.79 248.03C523.13 233.72 533.86 119.3 535.2 105C537.74 78.08 528.81 51.34 510.6 31.35C492.39 11.37 466.61 -0.02 439.57 0C415.65 0 224.34 0 200.42 0C173.39 -0.02 147.6 11.37 129.39 31.35C111.18 51.34 102.25 78.08 104.79 105C106.13 119.3 116.86 233.72 118.21 248.03C84.74 240.06 49.57 250.61 26.02 275.68C2.47 300.75 -5.86 336.51 4.19 369.41C14.23 402.31 41.12 427.32 74.67 434.95C74.67 445.86 74.67 533.09 74.67 544C74.72 563.4 87.88 580.31 106.67 585.15C106.67 587.44 106.67 605.71 106.67 608C106.68 625.66 121 639.98 138.67 640C145.07 640 196.26 640 202.66 640C220.33 639.98 234.65 625.66 234.66 608C234.66 606.58 234.66 599.46 234.66 586.66L405.33 586.66C405.33 599.46 405.33 606.58 405.33 608C405.35 625.66 419.66 639.98 437.33 640C443.73 640 494.93 640 501.33 640C518.99 639.98 533.31 625.66 533.33 608C533.33 605.71 533.33 587.44 533.33 585.15C552.12 580.31 565.27 563.4 565.33 544C565.33 533.09 565.33 445.86 565.33 434.95C612.97 424.09 644.86 379.17 639.39 330.61C633.93 282.05 592.86 245.34 543.99 245.33ZM200.42 21.33C224.34 21.33 415.65 21.33 439.57 21.33C460.6 21.31 480.67 30.17 494.83 45.72C508.99 61.26 515.94 82.07 513.96 103.01C512.52 118.36 501 241.2 499.56 256.55C467.92 273 448.05 305.67 448 341.33C448 345.13 448 375.47 448 379.27C441.54 375.42 434.18 373.38 426.66 373.33C405.33 373.33 234.66 373.33 213.33 373.33C205.82 373.38 198.45 375.43 192 379.27C192 375.47 192 345.13 192 341.33C191.95 305.67 172.08 272.99 140.43 256.55C138.99 241.19 127.47 118.36 126.03 103.01C123.95 82.06 130.91 61.22 145.15 45.73C159.26 30.09 179.37 21.22 200.42 21.33ZM448 480L192 480C192 441.6 192 420.27 192 416C192.01 404.22 201.55 394.68 213.33 394.67C234.66 394.67 405.33 394.67 426.66 394.67C438.44 394.68 447.98 404.22 448 416C448 424.53 448 445.87 448 480ZM96 426.03C95.94 425.54 95.84 425.06 95.71 424.58C95.64 423.88 95.5 423.18 95.29 422.51C95.04 421.88 94.74 421.28 94.38 420.71C93.77 419.49 92.85 418.45 91.72 417.7C91.2 417.28 90.64 416.9 90.05 416.58C89.4 416.29 88.72 416.06 88.02 415.9C87.57 415.72 87.11 415.56 86.64 415.44C47.54 410.5 19.01 376.01 21.48 336.66C23.95 297.32 56.58 266.68 96 266.67C106.36 266.65 116.61 268.81 126.07 273.03C153.18 284.92 170.68 311.73 170.66 341.33C170.66 356.27 170.66 430.93 170.66 565.33C138.66 565.33 120.89 565.33 117.33 565.33C105.55 565.32 96.01 555.78 96 544C96 520.4 96 437.82 96 426.03ZM202.66 618.66C196.26 618.66 145.07 618.66 138.67 618.66C132.78 618.66 128.01 613.89 128 608C128 606.58 128 599.46 128 586.66L213.33 586.66L213.33 608C210.15 615.1 206.59 618.66 202.66 618.66ZM192 565.33L192 501.33L448 501.33L448 565.33L224 565.33L192 565.33ZM501.33 618.66C494.93 618.66 443.73 618.66 437.33 618.66C431.44 618.66 426.67 613.89 426.66 608C426.66 606.58 426.66 599.46 426.66 586.66L512 586.66L512 608C508.81 615.1 505.25 618.66 501.33 618.66ZM551.97 415.9C551.27 416.06 550.59 416.29 549.94 416.58C549.35 416.9 548.79 417.27 548.28 417.7C547.14 418.45 546.23 419.49 545.62 420.71C545.26 421.28 544.95 421.88 544.71 422.51C544.5 423.18 544.36 423.88 544.29 424.58C544.15 425.05 544.06 425.54 544 426.02C544 437.82 544 532.2 544 544C543.98 555.77 534.44 565.32 522.66 565.33C519.11 565.33 501.33 565.33 469.33 565.33C469.33 430.93 469.33 356.27 469.33 341.33C469.31 311.71 486.84 284.89 513.98 273.01C523.43 268.8 533.66 266.64 544 266.67C583.42 266.68 616.04 297.32 618.52 336.66C620.99 376.01 592.46 410.5 553.35 415.44C552.88 415.56 552.42 415.72 551.97 415.9Z" id="bfyx7rjVC"></path><path d="M64 341.33C64 359.01 78.32 373.33 96 373.33C113.66 373.31 127.98 359 128 341.33C128 323.66 113.67 309.33 96 309.33C78.33 309.33 64 323.66 64 341.33ZM85.33 341.33C85.33 335.44 90.11 330.67 96 330.67C101.89 330.67 106.66 335.44 106.66 341.33C106.66 347.22 101.89 351.99 96 352C90.11 352 85.33 347.22 85.33 341.33Z" id="aw8Axlaos"></path><path d="M511.99 341.33C511.99 359.01 526.32 373.33 543.99 373.33C561.67 373.33 575.99 359.01 575.99 341.33C575.98 323.67 561.66 309.35 543.99 309.33C526.32 309.33 511.99 323.66 511.99 341.33ZM533.33 341.33C533.33 335.44 538.1 330.67 543.99 330.67C549.89 330.67 554.66 335.44 554.66 341.33C554.65 347.22 549.88 351.99 543.99 352C538.1 352 533.33 347.22 533.33 341.33Z" id="h1KaK22BtS"></path><path d="M245.33 149.34C245.33 131.66 231 117.34 213.33 117.34C195.66 117.34 181.33 131.66 181.33 149.34C181.35 167 195.67 181.31 213.33 181.33C231 181.33 245.33 167.01 245.33 149.34ZM224 149.34C224 155.23 219.22 160 213.33 160C207.44 160 202.66 155.23 202.66 149.34C202.67 143.45 207.44 138.68 213.33 138.67C219.22 138.67 224 143.44 224 149.34Z" id="a1NmMkY7GG"></path><path d="M256 288C273.67 288 288 273.67 288 256C288 238.33 273.67 224 256 224C238.33 224.02 224.02 238.34 224 256C224 273.67 238.32 288 256 288ZM266.66 256C266.66 261.89 261.89 266.67 256 266.67C250.11 266.67 245.33 261.89 245.33 256C245.34 250.11 250.11 245.34 256 245.33C261.89 245.33 266.66 250.11 266.66 256Z" id="a2lGwoSy30"></path><path d="M416 256C416 238.33 401.67 224 384 224C366.32 224 352 238.33 352 256C352.02 273.67 366.33 287.98 384 288C401.67 288 416 273.67 416 256ZM394.66 256C394.66 261.89 389.89 266.67 384 266.67C378.1 266.67 373.33 261.89 373.33 256C373.34 250.11 378.11 245.34 384 245.33C389.89 245.33 394.66 250.11 394.66 256Z" id="bcRsknqQY"></path><path d="M352 149.34C352 131.66 337.67 117.34 320 117.34C302.32 117.34 288 131.66 288 149.34C288.02 167 302.33 181.31 320 181.33C337.67 181.33 352 167.01 352 149.34ZM330.66 149.34C330.66 155.23 325.89 160 320 160C314.11 160 309.33 155.23 309.33 149.34C309.34 143.45 314.11 138.68 320 138.67C325.89 138.67 330.66 143.44 330.66 149.34Z" id="e25ZBs7GXc"></path><path d="M458.66 149.34C458.66 131.66 444.34 117.34 426.66 117.34C408.99 117.34 394.66 131.66 394.66 149.34C394.68 167 409 181.31 426.66 181.33C444.34 181.33 458.66 167.01 458.66 149.34ZM437.33 149.34C437.33 155.23 432.55 160 426.66 160C420.77 160 416 155.23 416 149.34C416 143.45 420.77 138.68 426.66 138.67C432.55 138.67 437.33 143.44 437.33 149.34Z" id="akyzUIUrZ"></path></defs><g><g><g><use xlink:href="#bfyx7rjVC" opacity="1" fill="#ffffff" fill-opacity="1"></use><g><use xlink:href="#bfyx7rjVC" opacity="1" fill-opacity="0" stroke="#000000" stroke-width="1" stroke-opacity="0"></use></g></g><g><use xlink:href="#aw8Axlaos" opacity="1" fill="#ffffff" fill-opacity="1"></use><g><use xlink:href="#aw8Axlaos" opacity="1" fill-opacity="0" stroke="#000000" stroke-width="1" stroke-opacity="0"></use></g></g><g><use xlink:href="#h1KaK22BtS" opacity="1" fill="#ffffff" fill-opacity="1"></use><g><use xlink:href="#h1KaK22BtS" opacity="1" fill-opacity="0" stroke="#000000" stroke-width="1" stroke-opacity="0"></use></g></g><g><use xlink:href="#a1NmMkY7GG" opacity="1" fill="#ffffff" fill-opacity="1"></use><g><use xlink:href="#a1NmMkY7GG" opacity="1" fill-opacity="0" stroke="#000000" stroke-width="1" stroke-opacity="0"></use></g></g><g><use xlink:href="#a2lGwoSy30" opacity="1" fill="#ffffff" fill-opacity="1"></use><g><use xlink:href="#a2lGwoSy30" opacity="1" fill-opacity="0" stroke="#000000" stroke-width="1" stroke-opacity="0"></use></g></g><g><use xlink:href="#bcRsknqQY" opacity="1" fill="#ffffff" fill-opacity="1"></use><g><use xlink:href="#bcRsknqQY" opacity="1" fill-opacity="0" stroke="#000000" stroke-width="1" stroke-opacity="0"></use></g></g><g><use xlink:href="#e25ZBs7GXc" opacity="1" fill="#ffffff" fill-opacity="1"></use><g><use xlink:href="#e25ZBs7GXc" opacity="1" fill-opacity="0" stroke="#000000" stroke-width="1" stroke-opacity="0"></use></g></g><g><use xlink:href="#akyzUIUrZ" opacity="1" fill="#ffffff" fill-opacity="1"></use><g><use xlink:href="#akyzUIUrZ" opacity="1" fill-opacity="0" stroke="#000000" stroke-width="1" stroke-opacity="0"></use></g></g></g></g></svg>