<?xml version="1.0" encoding="UTF-8" standalone="no"?>
<!DOCTYPE svg PUBLIC "-//W3C//DTD SVG 1.1//EN" "http://www.w3.org/Graphics/SVG/1.1/DTD/svg11.dtd">
<svg version="1.1" xmlns="http://www.w3.org/2000/svg" xmlns:xlink="http://www.w3.org/1999/xlink" preserveAspectRatio="xMidYMid meet" viewBox="0 0 640 640" width="640" height="640"><defs><path d="M0 320C0 496.73 143.27 640 320 640C496.73 640 640 496.73 640 320C640 143.27 496.73 0 320 0C143.27 0 0 143.27 0 320ZM397.82 162.98C363.11 162.98 356.4 179.47 356.4 203.67C356.4 207.23 356.4 225.02 356.4 257.03L439.17 257.03L439.13 340.61L356.41 340.61L356.41 555.09L270.08 555.09L270.08 340.61L197.92 340.61L197.92 257.03L270.08 257.03C270.08 220.05 270.08 199.51 270.08 195.4C270.08 123.87 313.79 84.91 377.59 84.91C381.89 84.92 403.39 84.95 442.09 85.01L442.09 162.96L442.08 162.96C415.53 162.97 400.77 162.98 397.82 162.98Z" id="dsusWtvDk"></path></defs><g><g><g><use xlink:href="#dsusWtvDk" opacity="1" fill="#ffffff" fill-opacity="1"></use><g><use xlink:href="#dsusWtvDk" opacity="1" fill-opacity="0" stroke="#000000" stroke-width="1" stroke-opacity="0"></use></g></g></g></g></svg>