<?xml version="1.0" encoding="UTF-8" standalone="no"?>
<!DOCTYPE svg PUBLIC "-//W3C//DTD SVG 1.1//EN" "http://www.w3.org/Graphics/SVG/1.1/DTD/svg11.dtd">
<svg version="1.1" xmlns="http://www.w3.org/2000/svg" xmlns:xlink="http://www.w3.org/1999/xlink" preserveAspectRatio="xMidYMid meet" viewBox="0 0 640 640" width="640" height="640"><defs><path d="M320 381.25C286.17 381.25 258.75 353.83 258.75 320C258.75 286.17 286.17 258.75 320 258.75C353.83 258.75 381.25 286.17 381.25 320C381.25 353.83 353.83 381.25 320 381.25Z" id="cQ96NOfUG"></path><path d="M449.5 190.5C443.57 184.4 436.35 179.7 428.37 176.76C421.89 174.24 412.17 171.25 394.25 170.43C374.87 169.55 369.06 169.36 320 169.36C270.93 169.36 265.12 169.55 245.75 170.43C227.83 171.25 218.1 174.24 211.63 176.76C203.65 179.7 196.43 184.4 190.5 190.5C184.4 196.43 179.7 203.65 176.75 211.63C174.24 218.11 171.25 227.84 170.43 245.75C169.55 265.13 169.36 270.94 169.36 320C169.36 369.07 169.55 374.88 170.43 394.26C171.25 412.17 174.24 421.9 176.75 428.37C179.7 436.36 184.39 443.57 190.5 449.5C196.43 455.61 203.64 460.3 211.63 463.25C218.1 465.77 227.83 468.76 245.75 469.58C265.12 470.46 270.93 470.64 320 470.64C369.07 470.64 374.88 470.46 394.25 469.58C412.16 468.76 421.89 465.77 428.37 463.25C444.39 457.07 457.06 444.4 463.24 428.37C465.76 421.9 468.75 412.17 469.57 394.26C470.45 374.88 470.64 369.07 470.64 320C470.64 270.94 470.45 265.13 469.57 245.75C468.75 227.84 465.76 218.11 463.24 211.63C460.3 203.65 455.6 196.43 449.5 190.5ZM225.64 320C225.64 267.89 267.89 225.64 320 225.64C372.11 225.64 414.36 267.89 414.36 320C414.36 372.11 372.11 414.36 320 414.36C267.89 414.36 225.64 372.11 225.64 320ZM396.04 221.91C396.04 209.74 405.91 199.86 418.09 199.86C430.26 199.86 440.14 209.74 440.14 221.91C440.13 234.09 430.26 243.96 418.09 243.96C405.91 243.96 396.04 234.09 396.04 221.91Z" id="dLqx5dhqZ"></path><path d="M0 320C0 496.7 143.3 640 320 640C496.7 640 640 496.7 640 320C640 143.3 496.7 0 320 0C143.3 0 0 143.3 0 320ZM494.1 440.36C484.56 465.04 465.04 484.56 440.36 494.1C428.68 498.64 415.32 501.75 395.76 502.64C376.17 503.54 369.91 503.75 320 503.75C270.1 503.75 263.84 503.54 244.24 502.64C224.69 501.75 211.33 498.64 199.64 494.1C187.38 489.49 176.27 482.26 167.09 472.91C157.75 463.73 150.52 452.62 145.9 440.36C141.36 428.68 138.25 415.32 137.36 395.76C136.46 376.16 136.25 369.9 136.25 320C136.25 270.1 136.46 263.84 137.36 244.24C138.25 224.68 141.35 211.33 145.89 199.64C150.51 187.38 157.74 176.27 167.09 167.09C176.27 157.74 187.38 150.51 199.64 145.9C211.33 141.36 224.68 138.25 244.24 137.36C263.84 136.46 270.1 136.25 320 136.25C369.9 136.25 376.16 136.46 395.76 137.36C415.32 138.25 428.67 141.36 440.36 145.89C452.62 150.51 463.73 157.74 472.91 167.09C482.26 176.27 489.49 187.38 494.1 199.64C498.65 211.33 501.75 224.68 502.65 244.24C503.54 263.84 503.75 270.1 503.75 320C503.75 369.9 503.54 376.16 502.64 395.76C501.75 415.32 498.64 428.67 494.1 440.36Z" id="a30MOuP406"></path></defs><g><g><g><use xlink:href="#cQ96NOfUG" opacity="1" fill="#ffffff" fill-opacity="1"></use><g><use xlink:href="#cQ96NOfUG" opacity="1" fill-opacity="0" stroke="#000000" stroke-width="1" stroke-opacity="0"></use></g></g><g><use xlink:href="#dLqx5dhqZ" opacity="1" fill="#ffffff" fill-opacity="1"></use><g><use xlink:href="#dLqx5dhqZ" opacity="1" fill-opacity="0" stroke="#000000" stroke-width="1" stroke-opacity="0"></use></g></g><g><use xlink:href="#a30MOuP406" opacity="1" fill="#ffffff" fill-opacity="1"></use><g><use xlink:href="#a30MOuP406" opacity="1" fill-opacity="0" stroke="#000000" stroke-width="1" stroke-opacity="0"></use></g></g></g></g></svg>