<?xml version="1.0" encoding="UTF-8" standalone="no"?>
<!DOCTYPE svg PUBLIC "-//W3C//DTD SVG 1.1//EN" "http://www.w3.org/Graphics/SVG/1.1/DTD/svg11.dtd">
<svg version="1.1" xmlns="http://www.w3.org/2000/svg" xmlns:xlink="http://www.w3.org/1999/xlink" preserveAspectRatio="xMidYMid meet" viewBox="0 0 640 640" width="640" height="640"><defs><path d="M400.89 340.38C400.81 361.67 418.44 379.39 439.77 379.44C461.15 379.51 478.72 361.94 478.71 340.53C478.69 319.06 461.36 301.63 440.05 301.63C418.5 301.63 400.96 318.97 400.89 340.38ZM420.15 340.7C420.17 329.47 428.78 320.81 439.93 320.79C450.83 320.78 459.77 329.71 459.68 340.57C459.55 351.41 450.77 360.23 440.05 360.23C429.01 360.23 420.13 351.51 420.15 340.7Z" id="a6m52zIYS"></path><path d="M433.68 221.06C399.58 205.91 363.62 199.46 326.6 198.75C284.54 197.93 243.62 204.13 204.54 220.53C233.76 222.3 259.42 232.5 281.11 252.2C302.75 271.9 315.43 296.44 320.03 325.31C324.77 296.78 337.11 272.45 358.35 252.98C379.61 233.47 404.94 223.24 433.68 221.06Z" id="d2t3rPexv"></path><path d="M103.85 343.31C104.7 394.59 146.96 438.06 200.85 437.59C253.53 437.14 295.89 394.11 295.98 342C296.06 288.49 253.2 245.62 199.77 245.62C148.05 245.16 102.96 288.32 103.85 343.31ZM138.76 340.46C138.82 306.47 166.83 280.47 198.5 281.05C231.39 281.01 258.08 307.56 257.99 340.43C257.91 373.71 231.68 398.66 201.32 400.04C166.66 401.63 138.7 374 138.76 340.46Z" id="fLIzrLqJ"></path><path d="M343.96 341.72C343.96 394.89 387.11 438.33 440.09 438.13C493.27 437.94 536.22 395.72 536.18 341.96C536.15 286.55 491.2 244.9 438.03 245.98C385.53 247.06 344.43 289.37 343.96 341.72ZM380.24 340.51C380.25 306.77 408.07 280.47 439.89 281.05C472.81 280.98 499.47 307.49 499.47 340.38C499.46 373.37 473.26 398.88 442.35 400.05C407.84 401.38 380.22 373.86 380.24 340.51Z" id="cxtLSVxvK"></path><path d="M0 320C0 496.73 143.27 640 320 640C496.73 640 640 496.73 640 320C640 143.27 496.73 0 320 0C143.27 0 0 143.27 0 320ZM439.74 462.67C430.05 462.74 420.4 461.44 410.94 458.98C387.88 453 368.08 441.49 351.78 424.08C349.62 421.79 347.6 419.41 345.32 416.83C336.7 429.67 328.22 442.31 319.53 455.27C310.89 442.34 302.51 429.82 294.17 417.38C293.59 417.67 293.43 417.71 293.31 417.8C293.12 417.97 292.95 418.17 292.82 418.34C273.1 441.62 248.29 455.88 218.08 460.67C201.27 463.33 184.63 462.38 168.3 457.87C145.17 451.51 125.5 439.31 109.62 421.29C94.09 403.69 84.43 383.24 80.82 359.99C76.68 338.31 81.72 317.38 82.98 312.31C86.64 297.57 93 284.02 101.75 271.56C102.37 270.67 102.58 269.1 102.29 268.05C98.72 254.97 92.59 243.07 85.38 231.67C83.56 228.78 81.37 226.1 79.35 223.32C79.35 223 79.35 222.68 79.35 222.35C79.75 222.41 80.15 222.48 80.55 222.48C104.76 222.5 128.98 222.5 153.19 222.46C154.25 222.46 155.41 222.03 156.32 221.45C173.33 210.53 191.46 201.89 210.5 195.16C224.24 190.31 238.25 186.53 252.56 183.75C266.41 181.08 280.32 179.19 294.39 178.26C328.69 175.62 356.11 179.25 374.34 181.79C387.78 183.68 400.95 187.08 413.96 191.06C436.67 198.06 458.09 207.78 478.24 220.38C479.64 221.25 481.52 221.8 483.17 221.8C506.82 221.9 530.48 221.86 554.14 221.89C556.04 221.89 557.95 222.09 559.84 222.2C559.84 222.65 559.91 222.85 559.83 222.96C558.73 224.65 557.6 226.34 556.5 228.04C548.48 240.34 541.62 253.23 537.56 267.46C537.13 268.98 537.02 270.26 538.06 271.77C559.13 302.02 565.84 335.23 557.04 371.04C549.31 402.43 531.31 426.9 503.95 444.25C484.42 456.66 462.82 462.55 439.74 462.67Z" id="ag2H2hhWk"></path><path d="M159.39 340.5C159.45 361.84 177.04 379.4 198.44 379.45C219.7 379.5 237.32 361.79 237.27 340.39C237.21 318.8 219.75 301.6 197.96 301.63C176.95 301.67 159.35 319.41 159.39 340.5ZM178.48 340.39C178.48 329.26 187.16 320.62 198.4 320.6C209.46 320.59 218.37 329.43 218.42 340.47C218.45 351.42 209.47 360.4 198.46 360.44C187.17 360.45 178.48 351.74 178.48 340.39Z" id="b1dLqcYApr"></path></defs><g><g><g><use xlink:href="#a6m52zIYS" opacity="1" fill="#ffffff" fill-opacity="1"></use><g><use xlink:href="#a6m52zIYS" opacity="1" fill-opacity="0" stroke="#000000" stroke-width="1" stroke-opacity="0"></use></g></g><g><use xlink:href="#d2t3rPexv" opacity="1" fill="#ffffff" fill-opacity="1"></use><g><use xlink:href="#d2t3rPexv" opacity="1" fill-opacity="0" stroke="#000000" stroke-width="1" stroke-opacity="0"></use></g></g><g><use xlink:href="#fLIzrLqJ" opacity="1" fill="#ffffff" fill-opacity="1"></use><g><use xlink:href="#fLIzrLqJ" opacity="1" fill-opacity="0" stroke="#000000" stroke-width="1" stroke-opacity="0"></use></g></g><g><use xlink:href="#cxtLSVxvK" opacity="1" fill="#ffffff" fill-opacity="1"></use><g><use xlink:href="#cxtLSVxvK" opacity="1" fill-opacity="0" stroke="#000000" stroke-width="1" stroke-opacity="0"></use></g></g><g><use xlink:href="#ag2H2hhWk" opacity="1" fill="#ffffff" fill-opacity="1"></use><g><use xlink:href="#ag2H2hhWk" opacity="1" fill-opacity="0" stroke="#000000" stroke-width="1" stroke-opacity="0"></use></g></g><g><use xlink:href="#b1dLqcYApr" opacity="1" fill="#ffffff" fill-opacity="1"></use><g><use xlink:href="#b1dLqcYApr" opacity="1" fill-opacity="0" stroke="#000000" stroke-width="1" stroke-opacity="0"></use></g></g></g></g></svg>