<?xml version="1.0" encoding="UTF-8" standalone="no"?>
<!DOCTYPE svg PUBLIC "-//W3C//DTD SVG 1.1//EN" "http://www.w3.org/Graphics/SVG/1.1/DTD/svg11.dtd">
<svg version="1.1" xmlns="http://www.w3.org/2000/svg" xmlns:xlink="http://www.w3.org/1999/xlink" preserveAspectRatio="xMidYMid meet" viewBox="0 0 640 640" width="640" height="640"><defs><path d="M0 320C0 496.7 143.3 640 320 640C496.7 640 640 496.7 640 320C640 143.3 496.7 0 320 0C143.3 0 0 143.3 0 320ZM466.32 258.99C466.32 356.05 392.44 467.97 257.34 467.97C257.34 467.97 257.34 467.97 257.34 467.97C257.34 467.97 257.34 467.97 257.34 467.97C215.86 467.97 177.26 455.82 144.76 434.98C150.5 435.66 156.35 436 162.28 436C196.69 436 228.36 424.26 253.5 404.56C221.35 403.96 194.24 382.72 184.88 353.54C189.36 354.4 193.96 354.87 198.69 354.87C205.39 354.87 211.88 353.96 218.06 352.28C184.45 345.55 159.13 315.85 159.13 280.28C159.13 279.95 159.13 279.65 159.14 279.35C169.04 284.85 180.36 288.16 192.41 288.53C172.69 275.37 159.72 252.88 159.72 227.39C159.72 213.94 163.36 201.33 169.67 190.47C205.89 234.92 260.02 264.15 321.06 267.22C319.8 261.84 319.16 256.23 319.16 250.47C319.16 209.92 352.05 177.03 392.61 177.03C413.74 177.03 432.82 185.96 446.23 200.23C462.96 196.93 478.67 190.82 492.87 182.41C487.37 199.55 475.73 213.94 460.57 223.03C475.42 221.25 489.58 217.31 502.74 211.46C492.92 226.2 480.45 239.14 466.11 249.5C466.25 252.65 466.32 255.82 466.32 258.99Z" id="dd6XxPY1Y"></path></defs><g><g><g><use xlink:href="#dd6XxPY1Y" opacity="1" fill="#ffffff" fill-opacity="1"></use><g><use xlink:href="#dd6XxPY1Y" opacity="1" fill-opacity="0" stroke="#000000" stroke-width="1" stroke-opacity="0"></use></g></g></g></g></svg>