<?xml version="1.0" encoding="UTF-8" standalone="no"?>
<!DOCTYPE svg PUBLIC "-//W3C//DTD SVG 1.1//EN" "http://www.w3.org/Graphics/SVG/1.1/DTD/svg11.dtd">
<svg version="1.1" xmlns="http://www.w3.org/2000/svg" xmlns:xlink="http://www.w3.org/1999/xlink" preserveAspectRatio="xMidYMid meet" viewBox="0 0 640 640" width="640" height="640"><defs><path d="M127.41 131.11L508.89 131.11L508.89 501.48L127.41 501.48L127.41 131.11Z" id="d1FweTN1Tr"></path><path d="M209.83 292.81C209.83 341.19 249.05 380.41 297.42 380.41C345.8 380.41 385.01 341.19 385.01 292.81C385.01 244.44 345.8 205.21 297.42 205.21C249.05 205.21 209.83 244.44 209.83 292.81ZM314.02 313.54C314.02 328.98 314.02 337.55 314.02 339.27C314.02 348.44 306.59 355.87 297.42 355.87C288.25 355.87 280.82 348.44 280.82 339.27C280.82 337.55 280.82 328.98 280.82 313.54C265.38 313.54 256.81 313.54 255.09 313.54C245.92 313.54 238.49 306.11 238.49 296.94C238.49 287.77 245.92 280.34 255.09 280.34C256.81 280.34 265.38 280.34 280.82 280.34C280.82 264.9 280.82 256.32 280.82 254.61C280.82 245.44 288.25 238.01 297.42 238.01C306.59 238.01 314.02 245.44 314.02 254.61C314.02 256.32 314.02 264.9 314.02 280.34C329.45 280.34 338.03 280.34 339.75 280.34C348.92 280.34 356.35 287.77 356.35 296.94C356.35 306.11 348.92 313.54 339.75 313.54C336.32 313.54 327.74 313.54 314.02 313.54Z" id="choyG44Vk"></path><path d="M0 319.99C0 496.71 143.27 640 319.99 640C496.72 640 640 496.72 640 319.99C640 143.26 496.72 0 320 0C143.27 0 0 143.27 0 319.99ZM462.61 479.61C455.98 479.61 449.35 477.08 444.28 472.01C437 464.73 378.72 406.45 371.44 399.16C350.45 413.81 324.94 422.41 297.42 422.41C225.85 422.41 167.83 364.39 167.83 292.82C167.83 221.25 225.85 163.24 297.42 163.24C368.99 163.24 427 221.25 427 292.81C427 318.11 419.73 341.69 407.21 361.63C414.58 369 473.56 427.99 480.94 435.36C491.06 445.48 491.06 461.9 480.94 472.01C475.88 477.08 469.25 479.61 462.61 479.61Z" id="eHI5DcJgW"></path></defs><g><g><g><use xlink:href="#d1FweTN1Tr" opacity="1" fill="#ffffff" fill-opacity="1"></use></g><g><use xlink:href="#choyG44Vk" opacity="1" fill="#ff659d" fill-opacity="1"></use><g><use xlink:href="#choyG44Vk" opacity="1" fill-opacity="0" stroke="#000000" stroke-width="1" stroke-opacity="0"></use></g></g><g><use xlink:href="#eHI5DcJgW" opacity="1" fill="#ff659d" fill-opacity="1"></use><g><use xlink:href="#eHI5DcJgW" opacity="1" fill-opacity="0" stroke="#000000" stroke-width="1" stroke-opacity="0"></use></g></g></g></g></svg>